<svg version="1.1" id="Layer_1" xmlns="http://www.w3.org/2000/svg" xmlns:xlink="http://www.w3.org/1999/xlink" x="0px" y="0px"
	 width="100%" viewBox="0 0 512 512" enable-background="new 0 0 512 512" xml:space="preserve">
<path fill="#918E9B" opacity="1.000000" stroke="none" 
	d="
M235.000000,1.000000 
	C249.687561,1.000000 264.375122,1.000000 279.685577,1.399337 
	C285.048309,2.202904 289.861542,2.213606 294.515015,3.081123 
	C312.380768,6.411712 330.014893,10.432363 347.168823,16.821611 
	C370.137329,25.376577 390.990112,37.507637 410.851044,51.566158 
	C411.886139,52.298832 412.626251,55.346821 411.990448,56.241383 
	C406.825348,63.508640 401.303894,70.522896 395.881561,77.606995 
	C382.870026,94.606201 369.865326,111.610680 356.824615,128.587463 
	C355.053284,130.893433 353.269012,132.006287 350.187378,129.840622 
	C344.146667,125.595497 337.977234,121.426292 331.460083,117.985100 
	C304.657471,103.832779 276.354645,97.103157 245.771362,99.784424 
	C231.761978,101.012634 218.249542,103.596062 205.038834,108.054070 
	C182.121796,115.787521 162.158966,128.616943 145.246536,145.641571 
	C131.999146,158.976837 121.366989,174.359268 113.472366,191.739578 
	C104.487411,211.520279 99.930618,232.136673 99.159050,253.610107 
	C98.854912,262.074371 100.245171,270.610596 101.017944,279.100006 
	C102.299568,293.179688 106.700508,306.442596 112.091080,319.386353 
	C119.844612,338.004028 131.207382,354.397522 145.384109,368.513092 
	C158.958679,382.029083 174.595764,392.914795 192.284607,400.854370 
	C211.596710,409.522583 231.787445,414.032196 252.758499,414.835052 
	C261.385040,415.165344 270.084259,413.701477 278.745697,412.995636 
	C294.846497,411.683472 309.980347,406.622833 324.368805,399.761078 
	C342.315918,391.202240 357.990234,379.377625 371.808197,364.877655 
	C387.940186,347.949463 399.102112,328.289917 407.186249,305.912720 
	C356.916199,305.912720 307.053345,305.912720 257.298553,305.912720 
	C257.298553,272.998138 257.298553,240.596039 257.298553,208.000000 
	C342.731293,208.000000 427.865662,208.000000 513.000000,208.000000 
	C513.000000,231.354233 513.000000,254.708450 512.596558,278.691162 
	C510.231140,291.979431 508.867523,304.768066 506.175018,317.270508 
	C501.455170,339.186859 492.960938,359.719818 482.298492,379.486603 
	C472.542267,397.573456 460.824951,414.210541 446.991791,429.233978 
	C438.182678,438.801056 428.268341,447.403473 418.435852,455.963226 
	C402.272766,470.034180 383.989716,480.876221 364.575134,489.851227 
	C341.038910,500.731598 316.540009,508.230621 290.680878,511.036407 
	C286.762360,511.461578 282.892426,512.334290 279.000000,513.000000 
	C264.645782,513.000000 250.291550,513.000000 235.308868,512.596558 
	C225.456604,511.120270 216.100479,510.695648 207.035263,508.845673 
	C185.137253,504.376801 164.016373,497.296478 143.941513,487.408783 
	C122.532051,476.863800 102.806465,463.639801 85.212273,447.547821 
	C70.307114,433.915314 56.857033,418.892700 45.470314,402.065948 
	C34.175903,385.375671 24.681969,367.794403 17.485603,348.980713 
	C11.852645,334.254272 7.319791,319.230438 4.932540,303.583160 
	C3.979166,297.334229 2.331577,291.191223 1.000001,285.000000 
	C1.000000,266.645782 1.000000,248.291550 1.386770,229.330872 
	C2.856441,221.518265 3.583403,214.236801 5.088576,207.119919 
	C9.715297,185.243515 16.561260,164.036682 26.576378,144.030182 
	C36.581573,124.043503 48.793919,105.502571 63.668461,88.640778 
	C78.292892,72.062508 94.469231,57.355263 112.671654,44.932613 
	C128.475235,34.147099 145.300140,25.229252 163.197678,18.248610 
	C182.493866,10.722448 202.268158,5.406270 222.833649,2.972095 
	C226.909805,2.489636 230.945602,1.666197 235.000000,1.000000 
z"/>
<path fill="#FFFFFF" opacity="1.000000" stroke="none" 
	d="
M513.000000,207.531342 
	C427.865662,208.000000 342.731293,208.000000 257.298553,208.000000 
	C257.298553,240.596039 257.298553,272.998138 257.298553,305.912720 
	C307.053345,305.912720 356.916199,305.912720 407.186249,305.912720 
	C399.102112,328.289917 387.940186,347.949463 371.808197,364.877655 
	C357.990234,379.377625 342.315918,391.202240 324.368805,399.761078 
	C309.980347,406.622833 294.846497,411.683472 278.745697,412.995636 
	C270.084259,413.701477 261.385040,415.165344 252.758499,414.835052 
	C231.787445,414.032196 211.596710,409.522583 192.284607,400.854370 
	C174.595764,392.914795 158.958679,382.029083 145.384109,368.513092 
	C131.207382,354.397522 119.844612,338.004028 112.091080,319.386353 
	C106.700508,306.442596 102.299568,293.179688 101.017944,279.100006 
	C100.245171,270.610596 98.854912,262.074371 99.159050,253.610107 
	C99.930618,232.136673 104.487411,211.520279 113.472366,191.739578 
	C121.366989,174.359268 131.999146,158.976837 145.246536,145.641571 
	C162.158966,128.616943 182.121796,115.787521 205.038834,108.054070 
	C218.249542,103.596062 231.761978,101.012634 245.771362,99.784424 
	C276.354645,97.103157 304.657471,103.832779 331.460083,117.985100 
	C337.977234,121.426292 344.146667,125.595497 350.187378,129.840622 
	C353.269012,132.006287 355.053284,130.893433 356.824615,128.587463 
	C369.865326,111.610680 382.870026,94.606201 395.881561,77.606995 
	C401.303894,70.522896 406.825348,63.508640 411.990448,56.241383 
	C412.626251,55.346821 411.886139,52.298832 410.851044,51.566158 
	C390.990112,37.507637 370.137329,25.376577 347.168823,16.821611 
	C330.014893,10.432363 312.380768,6.411712 294.515015,3.081123 
	C289.861542,2.213606 285.048309,2.202904 280.154236,1.399337 
	C357.589386,1.000000 435.178741,1.000000 513.000000,1.000000 
	C513.000000,69.687386 513.000000,138.375031 513.000000,207.531342 
z"/>
<path fill="#FFFFFF" opacity="1.000000" stroke="none" 
	d="
M279.468658,513.000000 
	C282.892426,512.334290 286.762360,511.461578 290.680878,511.036407 
	C316.540009,508.230621 341.038910,500.731598 364.575134,489.851227 
	C383.989716,480.876221 402.272766,470.034180 418.435852,455.963226 
	C428.268341,447.403473 438.182678,438.801056 446.991791,429.233978 
	C460.824951,414.210541 472.542267,397.573456 482.298492,379.486603 
	C492.960938,359.719818 501.455170,339.186859 506.175018,317.270508 
	C508.867523,304.768066 510.231140,291.979431 512.596558,279.159821 
	C513.000000,356.927032 513.000000,434.854095 513.000000,513.000000 
	C435.312561,513.000000 357.624939,513.000000 279.468658,513.000000 
z"/>
<path fill="#FFFFFF" opacity="1.000000" stroke="none" 
	d="
M234.531342,1.000000 
	C230.945602,1.666197 226.909805,2.489636 222.833649,2.972095 
	C202.268158,5.406270 182.493866,10.722448 163.197678,18.248610 
	C145.300140,25.229252 128.475235,34.147099 112.671654,44.932613 
	C94.469231,57.355263 78.292892,72.062508 63.668461,88.640778 
	C48.793919,105.502571 36.581573,124.043503 26.576378,144.030182 
	C16.561260,164.036682 9.715297,185.243515 5.088576,207.119919 
	C3.583403,214.236801 2.856441,221.518265 1.386770,228.862213 
	C1.000000,153.072006 1.000000,77.144012 1.000000,1.000000 
	C78.687431,1.000000 156.375061,1.000000 234.531342,1.000000 
z"/>
<path fill="#FFFFFF" opacity="1.000000" stroke="none" 
	d="
M1.000001,285.468658 
	C2.331577,291.191223 3.979166,297.334229 4.932540,303.583160 
	C7.319791,319.230438 11.852645,334.254272 17.485603,348.980713 
	C24.681969,367.794403 34.175903,385.375671 45.470314,402.065948 
	C56.857033,418.892700 70.307114,433.915314 85.212273,447.547821 
	C102.806465,463.639801 122.532051,476.863800 143.941513,487.408783 
	C164.016373,497.296478 185.137253,504.376801 207.035263,508.845673 
	C216.100479,510.695648 225.456604,511.120270 234.840210,512.596558 
	C157.073914,513.000000 79.147827,513.000000 1.000000,513.000000 
	C1.000000,437.312592 1.000000,361.624939 1.000001,285.468658 
z"/>
</svg>