<svg version="1.1" id="Layer_1" xmlns="http://www.w3.org/2000/svg" xmlns:xlink="http://www.w3.org/1999/xlink" x="0px" y="0px"
	 width="100%" viewBox="0 0 2048 2048" enable-background="new 0 0 2048 2048" xml:space="preserve">
<path fill="#00ACFF" opacity="1.000000" stroke="none" 
	d="
M957.000000,1.000002 
	C1002.020935,1.000000 1047.041870,1.000000 1092.195679,1.355964 
	C1093.347412,2.138103 1094.342651,2.856525 1095.389160,2.941407 
	C1100.812134,3.381274 1106.259399,3.533206 1111.677368,4.018333 
	C1125.724976,5.276150 1139.791016,6.406223 1153.795288,8.049824 
	C1171.450806,10.121947 1189.138184,12.147415 1206.656128,15.112335 
	C1229.215820,18.930609 1251.784912,22.961935 1274.051025,28.177986 
	C1300.645874,34.408115 1327.042480,41.578758 1353.298218,49.129791 
	C1370.342041,54.031525 1387.172974,59.835686 1403.755005,66.141136 
	C1427.174683,75.046638 1450.479370,84.322105 1473.446899,94.326515 
	C1490.780273,101.876678 1507.638062,110.563866 1524.467041,119.213158 
	C1540.000977,127.196869 1555.624390,135.138672 1570.474976,144.289154 
	C1593.802734,158.662979 1616.730347,173.718536 1639.406494,189.105545 
	C1653.142700,198.426178 1666.195923,208.772964 1679.349243,218.926453 
	C1689.417603,226.698425 1699.162231,234.889832 1708.746826,243.124344 
	C1704.164429,243.235962 1699.885742,243.014801 1695.607178,243.014648 
	C1247.620117,242.999008 799.633057,243.000015 351.645966,242.999908 
	C349.979340,242.999908 348.296051,243.144073 346.650879,242.955841 
	C345.046753,242.772324 343.481659,242.248184 342.043701,241.558380 
	C343.024139,240.766068 343.952057,240.399780 344.682678,239.795105 
	C354.515137,231.657776 363.864166,222.848907 374.221832,215.450836 
	C399.965515,197.063080 425.648651,178.500656 452.332214,161.544525 
	C477.759705,145.386597 504.094452,130.561325 530.653381,116.311523 
	C549.323425,106.294403 568.942200,98.010719 588.306946,89.331337 
	C620.543640,74.882698 653.543579,62.356617 687.345215,52.096504 
	C709.789001,45.283932 732.365356,38.829887 755.100891,33.079193 
	C775.988525,27.795893 797.125793,23.460716 818.236572,19.113026 
	C830.179993,16.653315 842.262695,14.812118 854.335632,13.056213 
	C865.492676,11.433515 876.721497,10.305659 887.916565,8.942217 
	C898.620972,7.638522 909.297058,6.023554 920.032410,5.074125 
	C931.524414,4.057771 943.073792,3.697515 954.588562,2.911157 
	C955.431946,2.853562 956.197998,1.663542 957.000000,1.000002 
z"/>
<path fill="#008BFF" opacity="1.000000" stroke="none" 
	d="
M2046.833252,925.996155 
	C2046.895142,926.734802 2046.957031,927.473389 2046.902588,928.766052 
	C2047.135498,929.893616 2047.484619,930.467102 2047.833618,931.040649 
	C2048.034424,931.222717 2048.235352,931.404846 2048.718262,931.293457 
	C2049.000000,933.041687 2049.000000,935.083313 2048.765869,937.229919 
	C2047.873169,938.217773 2046.717529,939.100830 2046.717651,939.983582 
	C2046.717896,940.655884 2048.185303,941.327881 2049.000000,942.000000 
	C2049.000000,981.020935 2049.000000,1020.041809 2049.000000,1059.531494 
	C2048.334961,1060.868042 2047.150879,1061.698120 2047.084229,1062.609863 
	C2046.292847,1073.442871 2046.048218,1084.328369 2044.908325,1095.120605 
	C2043.297241,1110.372314 2041.162354,1125.572021 2039.053711,1140.766724 
	C2037.174316,1154.309692 2035.157837,1167.836792 2032.951050,1181.330078 
	C2031.457397,1190.462402 2029.529175,1199.523926 2026.979004,1208.820557 
	C1807.472778,1209.016113 1588.782959,1209.008667 1370.093140,1208.993896 
	C1366.929688,1208.993774 1363.766113,1208.901733 1360.717773,1208.515137 
	C1379.426514,1178.638306 1398.010132,1149.092529 1416.615601,1119.560547 
	C1446.058960,1072.825928 1475.495483,1026.086914 1504.980347,979.378357 
	C1516.240845,961.540100 1527.625977,943.780518 1539.425781,925.988647 
	C1708.875977,925.993469 1877.854614,925.994812 2046.833252,925.996155 
z"/>
<path fill="#0090FF" opacity="1.000000" stroke="none" 
	d="
M8.886014,1125.043457 
	C7.925582,1118.207886 6.655908,1111.398560 6.069046,1104.531128 
	C4.844747,1090.204102 3.996061,1075.845215 2.924955,1061.504395 
	C2.872287,1060.799316 2.171503,1060.142822 1.386253,1059.731812 
	C1.000000,1016.312439 1.000000,972.624878 0.999999,928.468628 
	C1.663289,927.354004 2.853618,926.750977 2.910449,926.055481 
	C3.704815,916.332336 4.344377,906.596619 5.552233,896.431824 
	C218.414139,895.999817 430.745422,895.999878 643.076721,896.000549 
	C644.910034,896.000549 646.785950,895.767578 648.564331,896.082397 
	C650.265076,896.383423 651.864319,897.257874 653.338501,898.164795 
	C653.104553,898.776245 653.129333,899.159180 652.963623,899.421936 
	C636.353210,925.770813 619.751892,952.125488 603.097107,978.446289 
	C589.672913,999.661316 576.098572,1020.781616 562.743896,1042.040039 
	C546.341370,1068.150269 530.114990,1094.370972 513.753601,1120.507080 
	C512.453003,1122.584717 510.694183,1124.375366 508.814178,1126.029785 
	C506.526581,1125.506958 504.574371,1125.046143 502.619476,1125.034302 
	C491.126099,1124.964722 479.632080,1124.999146 468.138275,1125.000122 
	C315.054199,1125.014526 161.970108,1125.028931 8.886014,1125.043457 
z"/>
<path fill="#006DFF" opacity="1.000000" stroke="none" 
	d="
M420.468658,2049.000000 
	C419.539368,2048.342041 419.175781,2047.212402 418.603912,2047.094604 
	C403.113892,2043.905396 389.893890,2036.147339 379.042419,2025.144043 
	C365.692596,2011.607056 357.339630,1995.170166 356.019318,1975.776733 
	C355.283264,1964.964355 354.734558,1954.138916 354.157379,1943.316406 
	C354.006439,1940.486328 354.064697,1937.645264 354.366516,1934.302124 
	C354.526337,1932.863525 354.346497,1931.932129 354.166626,1931.000610 
	C354.119354,1928.626953 354.072113,1926.253174 354.504791,1923.474121 
	C358.451691,1923.379272 361.918610,1923.961060 365.385590,1923.961426 
	C702.234741,1924.002808 1039.083984,1924.002686 1375.933105,1923.975708 
	C1381.078979,1923.975342 1386.227539,1923.450806 1391.369019,1923.532715 
	C1392.589722,1923.552246 1393.787109,1925.032959 1394.995239,1925.841553 
	C1393.007690,1926.536499 1391.020264,1927.231445 1388.442261,1927.593994 
	C1386.901367,1927.785278 1385.950806,1928.309326 1385.000366,1928.833496 
	C1383.917480,1929.228149 1382.834595,1929.622925 1381.268311,1929.738281 
	C1377.513306,1927.893799 1362.724609,1931.941040 1361.209717,1934.877686 
	C1360.929321,1935.421021 1361.059692,1936.176025 1361.000488,1936.833496 
	C1358.929321,1937.558228 1356.858154,1938.282837 1354.205566,1938.744141 
	C1350.349731,1935.918457 1348.555176,1936.894043 1348.000366,1940.833252 
	C1346.922485,1941.223877 1345.844727,1941.614502 1344.365234,1941.676880 
	C1343.232300,1940.726562 1342.501343,1940.104492 1341.770264,1939.482300 
	C1341.193970,1940.693237 1340.617798,1941.904297 1340.041626,1943.115234 
	C1339.266479,1943.416138 1338.491333,1943.717041 1337.295166,1943.795898 
	C1335.916382,1943.993774 1334.958496,1944.413574 1334.000488,1944.833496 
	C1322.004883,1948.222168 1310.101562,1951.993896 1297.992920,1954.914307 
	C1277.465942,1959.865479 1256.886841,1964.668579 1236.181641,1968.790161 
	C1220.999512,1971.812134 1205.584106,1973.668213 1190.265503,1975.996948 
	C1179.136353,1977.688721 1168.018555,1979.488281 1156.851929,1980.890869 
	C1148.871460,1981.893188 1140.819702,1982.335327 1132.797241,1982.995850 
	C1116.744019,1984.317505 1100.689209,1985.617432 1084.634888,1986.923950 
	C1084.137695,1986.964355 1083.638062,1986.988647 1083.139404,1986.994141 
	C1052.728394,1987.330444 1022.317078,1987.913818 991.906372,1987.885864 
	C977.884338,1987.873047 963.847595,1986.895630 949.846252,1985.935791 
	C934.279724,1984.869019 918.677917,1983.853760 903.213440,1981.866699 
	C878.286011,1978.663818 853.379333,1975.144165 828.613281,1970.888672 
	C807.802673,1967.312866 787.141602,1962.779175 766.533142,1958.141602 
	C750.076904,1954.438721 733.859009,1949.673706 717.395630,1946.007568 
	C713.830994,1945.213867 709.626160,1944.270752 705.278748,1945.567505 
	C701.130981,1941.950195 687.570007,1943.803833 685.149902,1947.863647 
	C684.994690,1948.124023 685.045349,1948.507324 685.000183,1948.833374 
	C657.740967,1960.668945 630.455811,1972.445190 603.230164,1984.357422 
	C577.765747,1995.499146 552.419556,2006.911865 526.918640,2017.968628 
	C504.871552,2027.528198 482.680023,2036.754639 460.553802,2046.131836 
	C458.808472,2046.871460 457.074615,2047.638184 455.667725,2048.696289 
	C444.312439,2049.000000 432.624878,2049.000000 420.468658,2049.000000 
z"/>
<path fill="#0080FF" opacity="1.000000" stroke="none" 
	d="
M115.885513,1466.042480 
	C105.611969,1445.450928 94.813408,1425.099976 85.232742,1404.190918 
	C77.702873,1387.757812 71.676933,1370.635620 65.408432,1353.420898 
	C144.917587,1353.015015 224.001221,1353.006348 303.084869,1353.000488 
	C340.712036,1352.997681 378.339355,1353.041626 415.966003,1352.901611 
	C418.348389,1352.892700 420.725494,1351.470947 423.440735,1350.822754 
	C424.900574,1351.638062 426.007111,1352.367554 427.151672,1353.031372 
	C438.516815,1359.622803 450.466278,1362.448242 463.286682,1358.011597 
	C468.219971,1356.304565 472.928375,1353.947510 478.174805,1351.937744 
	C482.242401,1352.325806 485.874420,1352.957886 489.506531,1352.958252 
	C985.211060,1353.002197 1480.915527,1353.000000 1976.620117,1353.001587 
	C1979.452637,1353.001709 1982.285156,1353.026367 1985.117676,1353.039551 
	C1981.828003,1361.814575 1979.000488,1370.797485 1975.162598,1379.325684 
	C1963.312866,1405.656860 1951.094971,1431.822632 1938.966431,1458.027832 
	C1937.739868,1460.678101 1936.151123,1463.160889 1933.946533,1465.872803 
	C1931.329590,1466.015991 1929.496582,1466.000977 1927.663452,1466.000977 
	C1325.903809,1465.999878 724.144104,1465.999878 122.384415,1466.001709 
	C120.218117,1466.001709 118.051811,1466.028320 115.885513,1466.042480 
z"/>
<path fill="#007AFF" opacity="1.000000" stroke="none" 
	d="
M257.889923,1666.046509 
	C251.096527,1658.684570 244.104523,1651.494019 237.560776,1643.916382 
	C229.647125,1634.752686 221.943863,1625.394043 214.455963,1615.878662 
	C204.171158,1602.809082 194.068802,1589.592041 184.096329,1576.282227 
	C178.845001,1569.273560 174.035858,1561.933594 169.297211,1554.197021 
	C171.940384,1553.100464 174.308594,1552.099854 176.687286,1552.074219 
	C190.682602,1551.923462 204.680374,1552.000122 218.677307,1552.000000 
	C773.389343,1551.996216 1328.101440,1551.992188 1882.813477,1551.988403 
	C1856.088135,1591.963501 1825.985352,1629.270630 1793.018188,1664.728027 
	C1789.732178,1664.416748 1787.099243,1664.025879 1784.466309,1664.025757 
	C1279.110962,1663.998901 773.755676,1663.999878 268.400391,1664.000000 
	C267.234070,1664.000000 266.019989,1663.791504 264.911285,1664.044556 
	C262.541931,1664.585205 260.227081,1665.364746 257.889923,1666.046509 
z"/>
<path fill="#0085FF" opacity="1.000000" stroke="none" 
	d="
M1985.437744,1352.862061 
	C1982.285156,1353.026367 1979.452637,1353.001709 1976.620117,1353.001587 
	C1480.915527,1353.000000 985.211060,1353.002197 489.506531,1352.958252 
	C485.874420,1352.957886 482.242401,1352.325806 478.357361,1351.646729 
	C514.171143,1323.978638 550.223389,1296.633179 586.311890,1269.335815 
	C600.705933,1258.448120 615.179993,1247.666260 630.026855,1237.007324 
	C633.230164,1237.452393 636.024231,1237.964722 638.818359,1237.965698 
	C757.883911,1238.005615 876.949524,1238.000000 996.015076,1238.000000 
	C1012.834106,1238.000000 1029.654053,1238.084229 1046.471069,1237.898315 
	C1048.694458,1237.873657 1050.902466,1236.472046 1053.450806,1235.820557 
	C1055.024536,1236.925049 1056.242676,1237.946411 1057.508789,1238.904785 
	C1078.060669,1254.462646 1098.376465,1270.346680 1119.240723,1285.473877 
	C1141.771851,1301.809570 1167.137085,1311.630737 1194.926147,1313.815186 
	C1211.870483,1315.147095 1228.875732,1314.034546 1245.517334,1309.725098 
	C1284.310791,1299.678711 1315.180908,1278.389282 1337.434570,1244.955078 
	C1345.356201,1233.053345 1352.891235,1220.894165 1360.602661,1208.852539 
	C1363.766113,1208.901733 1366.929688,1208.993774 1370.093140,1208.993896 
	C1588.782959,1209.008667 1807.472778,1209.016113 2026.638672,1209.033447 
	C2024.704834,1220.475342 2022.925781,1232.085571 2019.760986,1243.305054 
	C2011.853027,1271.340942 2003.436157,1299.236084 1994.960083,1327.107544 
	C1992.327026,1335.765381 1988.848999,1344.166138 1985.437744,1352.862061 
z"/>
<path fill="#007DFF" opacity="1.000000" stroke="none" 
	d="
M1882.973755,1551.676636 
	C1328.101440,1551.992188 773.389343,1551.996216 218.677307,1552.000000 
	C204.680374,1552.000122 190.682602,1551.923462 176.687286,1552.074219 
	C174.308594,1552.099854 171.940384,1553.100464 169.229004,1553.848999 
	C162.817902,1545.084961 156.309265,1536.383179 150.762344,1527.106323 
	C138.930328,1507.318359 127.596611,1487.232544 116.066154,1467.264282 
	C115.989555,1467.131714 116.016922,1466.938965 115.940636,1466.408447 
	C118.051811,1466.028320 120.218117,1466.001709 122.384415,1466.001709 
	C724.144104,1465.999878 1325.903809,1465.999878 1927.663452,1466.000977 
	C1929.496582,1466.000977 1931.329590,1466.015991 1933.638672,1466.033203 
	C1929.686279,1474.528320 1925.677734,1483.267212 1920.745728,1491.449585 
	C1908.993164,1510.946777 1896.808350,1530.183350 1884.776367,1549.511597 
	C1884.346436,1550.202515 1883.686768,1550.750366 1882.973755,1551.676636 
z"/>
<path fill="#0076FF" opacity="1.000000" stroke="none" 
	d="
M258.026855,1666.354980 
	C260.227081,1665.364746 262.541931,1664.585205 264.911285,1664.044556 
	C266.019989,1663.791504 267.234070,1664.000000 268.400391,1664.000000 
	C773.755676,1663.999878 1279.110962,1663.998901 1784.466309,1664.025757 
	C1787.099243,1664.025879 1789.732178,1664.416748 1792.706787,1664.867188 
	C1779.337524,1679.272827 1765.876587,1693.690674 1751.832886,1707.516235 
	C1741.406006,1717.781128 1730.297119,1727.361572 1719.344482,1737.080566 
	C1713.980225,1741.840820 1708.280518,1746.223022 1702.028442,1750.748291 
	C1698.356201,1750.480347 1695.388062,1750.029907 1692.420044,1750.029663 
	C1241.335571,1749.997925 790.251160,1749.998779 339.166718,1749.998291 
	C328.467529,1733.198975 312.590790,1721.420776 298.540405,1707.842651 
	C287.227539,1696.910034 276.529236,1685.341675 265.545197,1674.068237 
	C263.113190,1671.572144 260.625702,1669.130249 258.026855,1666.354980 
z"/>
<path fill="#0073FF" opacity="1.000000" stroke="none" 
	d="
M339.204407,1750.350830 
	C790.251160,1749.998779 1241.335571,1749.997925 1692.420044,1750.029663 
	C1695.388062,1750.029907 1698.356201,1750.480347 1701.715088,1750.885254 
	C1695.766968,1756.501221 1689.780884,1762.441528 1683.026123,1767.316895 
	C1656.855103,1786.205688 1630.525513,1804.879028 1604.062866,1823.357544 
	C1595.947876,1829.024048 1587.219116,1833.811646 1578.140869,1838.839355 
	C1573.057007,1838.451416 1568.603882,1838.028320 1564.150879,1838.027954 
	C1163.116821,1837.997803 762.082825,1838.002441 361.048767,1837.958496 
	C357.754700,1837.958130 354.460693,1837.332397 351.166626,1836.998535 
	C350.777740,1823.072266 349.965607,1809.140869 350.129730,1795.221069 
	C350.268951,1783.415527 347.873688,1772.133057 344.790436,1760.953369 
	C343.784088,1757.304321 341.138184,1754.107300 339.204407,1750.350830 
z"/>
<path fill="#006FFF" opacity="1.000000" stroke="none" 
	d="
M351.095398,1837.444214 
	C354.460693,1837.332397 357.754700,1837.958130 361.048767,1837.958496 
	C762.082825,1838.002441 1163.116821,1837.997803 1564.150879,1838.027954 
	C1568.603882,1838.028320 1573.057007,1838.451416 1577.779053,1838.892334 
	C1571.429688,1843.189697 1564.993408,1847.610229 1558.158081,1851.289062 
	C1538.522949,1861.857178 1519.143555,1873.038208 1498.893555,1882.292969 
	C1469.665649,1895.650757 1439.765869,1907.539551 1410.137695,1920.019409 
	C1405.372314,1922.026489 1400.528564,1923.847656 1395.358154,1925.798218 
	C1393.787109,1925.032959 1392.589722,1923.552246 1391.369019,1923.532715 
	C1386.227539,1923.450806 1381.078979,1923.975342 1375.933105,1923.975708 
	C1039.083984,1924.002686 702.234741,1924.002808 365.385590,1923.961426 
	C361.918610,1923.961060 358.451691,1923.379272 354.575684,1923.034180 
	C353.119141,1894.629761 352.071655,1866.259766 351.095398,1837.444214 
z"/>
<path fill="#006FFF" opacity="1.000000" stroke="none" 
	d="
M1361.383545,1936.895142 
	C1361.059692,1936.176025 1360.929321,1935.421021 1361.209717,1934.877686 
	C1362.724609,1931.941040 1377.513306,1927.893799 1380.912109,1929.788330 
	C1374.615112,1932.397705 1368.190796,1934.677368 1361.383545,1936.895142 
z"/>
<path fill="#006FFF" opacity="1.000000" stroke="none" 
	d="
M685.399475,1948.892578 
	C685.045349,1948.507324 684.994690,1948.124023 685.149902,1947.863647 
	C687.570007,1943.803833 701.130981,1941.950195 704.900757,1945.497070 
	C698.599304,1946.872925 692.199036,1947.912354 685.399475,1948.892578 
z"/>
<path fill="#006FFF" opacity="1.000000" stroke="none" 
	d="
M1348.368896,1940.896973 
	C1348.555176,1936.894043 1350.349731,1935.918457 1353.823730,1938.768311 
	C1352.261353,1939.690674 1350.499390,1940.325562 1348.368896,1940.896973 
z"/>
<path fill="#006FFF" opacity="1.000000" stroke="none" 
	d="
M1340.405518,1943.065918 
	C1340.617798,1941.904297 1341.193970,1940.693237 1341.770264,1939.482300 
	C1342.501343,1940.104492 1343.232300,1940.726562 1344.007324,1941.692383 
	C1342.957275,1942.363037 1341.863281,1942.689819 1340.405518,1943.065918 
z"/>
<path fill="#006FFF" opacity="1.000000" stroke="none" 
	d="
M1385.290771,1928.900879 
	C1385.950806,1928.309326 1386.901367,1927.785278 1388.034668,1927.547363 
	C1387.338745,1928.211670 1386.459839,1928.590088 1385.290771,1928.900879 
z"/>
<path fill="#006FFF" opacity="1.000000" stroke="none" 
	d="
M1334.339355,1944.903198 
	C1334.958496,1944.413574 1335.916382,1943.993774 1336.956787,1943.845947 
	C1336.252319,1944.402954 1335.465210,1944.687866 1334.339355,1944.903198 
z"/>
<path fill="#00A6FF" opacity="1.000000" stroke="none" 
	d="
M205.886047,383.957153 
	C212.089233,375.971008 218.088455,367.816101 224.531891,360.028778 
	C248.956543,330.509918 275.594910,303.040619 303.157654,276.484680 
	C315.465942,264.626007 328.559692,253.582550 341.598206,242.021347 
	C343.481659,242.248184 345.046753,242.772324 346.650879,242.955841 
	C348.296051,243.144073 349.979340,242.999908 351.645966,242.999908 
	C799.633057,243.000015 1247.620117,242.999008 1695.607178,243.014648 
	C1699.885742,243.014801 1704.164429,243.235962 1708.746826,243.124359 
	C1719.622437,252.350357 1730.438599,261.548950 1740.709106,271.321014 
	C1756.604736,286.445129 1772.665039,301.457092 1787.658936,317.450775 
	C1802.901367,333.709656 1816.965942,351.075165 1831.485107,368.008514 
	C1836.365845,373.700653 1841.058838,379.553558 1845.550537,385.626160 
	C1841.626709,385.612793 1837.989990,385.038483 1834.353394,385.038055 
	C1485.766968,384.997192 1137.180542,385.000000 788.594055,385.000000 
	C597.304749,385.000000 406.015472,385.004669 214.726196,384.956665 
	C211.779388,384.955933 208.832764,384.304779 205.886047,383.957153 
z"/>
<path fill="#0098FF" opacity="1.000000" stroke="none" 
	d="
M2046.902832,925.538452 
	C1877.854614,925.994812 1708.875977,925.993469 1539.489502,925.645630 
	C1556.914185,896.986511 1574.743164,868.671631 1592.579956,840.361694 
	C1607.932495,815.994568 1623.135254,791.531067 1638.723633,767.315735 
	C1645.682739,756.504883 1648.495239,744.795532 1646.953735,732.363098 
	C1645.393311,719.778687 1638.812134,709.611267 1628.989624,701.483337 
	C1614.685425,689.646912 1592.886108,686.734253 1577.612793,695.537781 
	C1564.248047,703.241211 1552.355957,713.514099 1539.884155,722.747681 
	C1528.075073,731.490723 1516.334351,740.326660 1504.607300,749.179810 
	C1491.726807,758.903687 1478.879150,768.670898 1466.049072,778.461243 
	C1451.403320,789.637146 1436.792969,800.859253 1421.736938,812.020142 
	C1418.007324,811.652710 1414.708252,811.044128 1411.408813,811.041565 
	C1340.780762,810.986816 1270.152710,811.000000 1199.524658,811.000000 
	C1134.560181,811.000000 1069.595581,810.969482 1004.631348,811.099548 
	C1001.701599,811.105469 998.774780,812.565735 995.505859,813.258301 
	C975.573120,798.470093 955.967896,783.789856 936.393494,769.068542 
	C922.076111,758.301025 906.703064,749.435913 889.563110,744.065735 
	C869.503601,737.780945 849.078064,734.844360 827.895996,736.850403 
	C810.013672,738.543945 792.820618,742.332153 776.581604,749.933044 
	C758.510620,758.391541 742.637695,770.023376 728.254395,784.301025 
	C724.912170,784.151978 722.082275,784.009705 719.252380,784.009521 
	C583.777466,783.998596 448.302582,784.004822 312.827698,783.998352 
	C215.845749,783.993774 118.863785,783.973999 21.881828,783.960999 
	C24.074053,773.671021 25.778141,763.247375 28.551987,753.116638 
	C36.222668,725.101562 44.339859,697.208679 52.892670,669.355774 
	C56.552265,669.962708 59.599674,670.935547 62.647182,670.935852 
	C707.709290,671.001709 1352.771362,670.999146 1997.833496,670.998657 
	C2001.553223,682.524536 2005.466675,693.992554 2008.935181,705.593506 
	C2012.043335,715.989014 2014.895996,726.474365 2017.441162,737.021484 
	C2021.163208,752.445312 2024.641479,767.931519 2027.975952,783.444397 
	C2030.771851,796.452454 2033.457764,809.494324 2035.733398,822.600891 
	C2037.519531,832.888245 2038.591919,843.299133 2040.004639,853.651978 
	C2041.305786,863.187073 2042.745117,872.704712 2043.921143,882.254944 
	C2044.782104,889.246948 2045.461792,896.269043 2045.954468,903.296448 
	C2046.462646,910.546021 2046.646606,917.818359 2046.902832,925.538452 
z"/>
<path fill="#00A2FF" opacity="1.000000" stroke="none" 
	d="
M205.573914,384.090576 
	C208.832764,384.304779 211.779388,384.955933 214.726196,384.956665 
	C406.015472,385.004669 597.304749,385.000000 788.594055,385.000000 
	C1137.180542,385.000000 1485.766968,384.997192 1834.353394,385.038055 
	C1837.989990,385.038483 1841.626709,385.612793 1845.690918,385.939972 
	C1853.050781,395.111908 1860.184448,404.119019 1866.859863,413.453918 
	C1873.809937,423.172882 1880.467529,433.110565 1886.981567,443.129150 
	C1895.445068,456.146118 1903.680786,469.312134 1911.928711,482.467743 
	C1914.753540,486.973206 1917.319702,491.640656 1919.644043,496.684143 
	C1915.983398,497.422852 1912.682739,497.964050 1909.382080,497.964264 
	C1320.167969,498.001404 730.953857,498.000000 141.739792,497.999603 
	C140.073486,497.999603 138.284058,498.379181 136.770935,497.896149 
	C134.720795,497.241608 132.882416,495.923676 130.953186,494.890350 
	C136.850082,484.882355 142.460709,474.691406 148.711594,464.909607 
	C157.856689,450.598846 167.197998,436.397156 176.945877,422.492615 
	C186.052094,409.503387 195.797623,396.962341 205.573914,384.090576 
z"/>
<path fill="#009DFF" opacity="1.000000" stroke="none" 
	d="
M1997.897217,670.615112 
	C1352.771362,670.999146 707.709290,671.001709 62.647182,670.935852 
	C59.599674,670.935547 56.552265,669.962708 53.227013,669.169250 
	C56.217312,659.130188 59.156319,649.240295 62.825901,639.629333 
	C69.332535,622.587830 76.263206,605.707886 83.075958,588.784302 
	C83.796432,586.994629 84.914360,585.364868 86.465378,583.330444 
	C343.206757,583.000000 599.330688,583.000000 855.454590,583.000000 
	C1221.560303,583.000000 1587.666138,583.002625 1953.771851,582.956909 
	C1956.885132,582.956482 1959.998413,582.303528 1963.111694,581.955200 
	C1968.025024,593.135742 1973.191895,604.213379 1977.783936,615.524414 
	C1982.918457,628.171326 1987.585693,641.009888 1992.345947,653.806152 
	C1994.362671,659.227417 1996.097900,664.753296 1997.897217,670.615112 
z"/>
<path fill="#009FFF" opacity="1.000000" stroke="none" 
	d="
M1963.062500,581.574707 
	C1959.998413,582.303528 1956.885132,582.956482 1953.771851,582.956909 
	C1587.666138,583.002625 1221.560303,583.000000 855.454590,583.000000 
	C599.330688,583.000000 343.206757,583.000000 86.624817,582.999878 
	C94.912453,564.711975 103.452141,546.321716 112.479797,528.174133 
	C118.040283,516.996338 124.345634,506.189026 130.634857,495.052856 
	C132.882416,495.923676 134.720795,497.241608 136.770935,497.896149 
	C138.284058,498.379181 140.073486,497.999603 141.739792,497.999603 
	C730.953857,498.000000 1320.167969,498.001404 1909.382080,497.964264 
	C1912.682739,497.964050 1915.983398,497.422852 1919.700928,497.047485 
	C1930.431396,516.435913 1940.875732,535.843506 1950.997314,555.417969 
	C1955.347778,563.831543 1959.028320,572.591553 1963.062500,581.574707 
z"/>
<path fill="#0098FF" opacity="1.000000" stroke="none" 
	d="
M2047.900146,930.731384 
	C2047.484619,930.467102 2047.135498,929.893616 2046.946777,929.135254 
	C2047.393677,929.441040 2047.680054,929.931580 2047.900146,930.731384 
z"/>
<path fill="#0095FF" opacity="1.000000" stroke="none" 
	d="
M21.558876,784.140869 
	C118.863785,783.973999 215.845749,783.993774 312.827698,783.998352 
	C448.302582,784.004822 583.777466,783.998596 719.252380,784.009521 
	C722.082275,784.009705 724.912170,784.151978 728.072998,784.601562 
	C720.706909,795.341248 712.450684,805.343567 705.422729,816.145020 
	C687.821350,843.197144 670.776367,870.611328 653.508240,897.880249 
	C651.864319,897.257874 650.265076,896.383423 648.564331,896.082397 
	C646.785950,895.767578 644.910034,896.000549 643.076721,896.000549 
	C430.745422,895.999878 218.414139,895.999817 5.624807,895.999207 
	C5.798215,888.329529 6.218657,880.635498 7.115300,872.997437 
	C8.199424,863.762329 9.591409,854.559753 11.022131,845.369812 
	C13.125073,831.862122 15.253366,818.355530 17.632984,804.894897 
	C18.586708,799.499939 20.332413,794.248962 21.504677,788.885925 
	C21.818060,787.452271 21.346901,785.847168 21.558876,784.140869 
z"/>
<path fill="#0085FF" opacity="1.000000" stroke="none" 
	d="
M423.105042,1350.706421 
	C420.725494,1351.470947 418.348389,1352.892700 415.966003,1352.901611 
	C378.339355,1353.041626 340.712036,1352.997681 303.084869,1353.000488 
	C224.001221,1353.006348 144.917587,1353.015015 65.357773,1353.031006 
	C63.241585,1349.044434 61.472736,1345.096802 59.981709,1341.046875 
	C46.812988,1305.277954 36.219395,1268.721558 27.425482,1231.666138 
	C23.041111,1213.191528 19.527193,1194.497437 16.079044,1175.817749 
	C13.359952,1161.087646 11.316328,1146.232056 9.050975,1131.420166 
	C8.777055,1129.629150 8.991611,1127.763306 8.932890,1125.487793 
	C161.970108,1125.028931 315.054199,1125.014526 468.138275,1125.000122 
	C479.632080,1124.999146 491.126099,1124.964722 502.619476,1125.034302 
	C504.574371,1125.046143 506.526581,1125.506958 508.835938,1126.379395 
	C493.896912,1151.261108 478.605347,1175.525635 463.305725,1199.785278 
	C452.102234,1217.550049 440.804169,1235.255737 429.707275,1253.086914 
	C421.705780,1265.943848 413.440613,1278.680542 406.267975,1291.996216 
	C399.994110,1303.643311 400.114655,1316.352051 405.333496,1328.409790 
	C409.166809,1337.266357 415.223572,1344.833618 423.105042,1350.706421 
z"/>
<path fill="#006FFF" opacity="1.000000" stroke="none" 
	d="
M354.096558,1931.372192 
	C354.346497,1931.932129 354.526337,1932.863525 354.436401,1933.896973 
	C354.119934,1933.247314 354.073212,1932.495483 354.096558,1931.372192 
z"/>
<path fill="#FFFFFF" opacity="1.000000" stroke="none" 
	d="
M423.440735,1350.822754 
	C415.223572,1344.833618 409.166809,1337.266357 405.333496,1328.409790 
	C400.114655,1316.352051 399.994110,1303.643311 406.267975,1291.996216 
	C413.440613,1278.680542 421.705780,1265.943848 429.707275,1253.086914 
	C440.804169,1235.255737 452.102234,1217.550049 463.305725,1199.785278 
	C478.605347,1175.525635 493.896912,1151.261108 509.170074,1126.648926 
	C510.694183,1124.375366 512.453003,1122.584717 513.753601,1120.507080 
	C530.114990,1094.370972 546.341370,1068.150269 562.743896,1042.040039 
	C576.098572,1020.781616 589.672913,999.661316 603.097107,978.446289 
	C619.751892,952.125488 636.353210,925.770813 652.963623,899.421936 
	C653.129333,899.159180 653.104553,898.776245 653.338501,898.164795 
	C670.776367,870.611328 687.821350,843.197144 705.422729,816.145020 
	C712.450684,805.343567 720.706909,795.341248 728.585388,784.674683 
	C742.637695,770.023376 758.510620,758.391541 776.581604,749.933044 
	C792.820618,742.332153 810.013672,738.543945 827.895996,736.850403 
	C849.078064,734.844360 869.503601,737.780945 889.563110,744.065735 
	C906.703064,749.435913 922.076111,758.301025 936.393494,769.068542 
	C955.967896,783.789856 975.573120,798.470093 995.682617,813.535706 
	C996.703186,814.337341 997.182312,814.803040 997.712646,815.200439 
	C1036.808716,844.496399 1075.904053,873.793335 1115.010742,903.075195 
	C1134.857788,917.935974 1154.613281,932.922729 1174.629028,947.552979 
	C1185.589844,955.564697 1198.322388,959.674377 1211.759888,958.739075 
	C1227.126953,957.669434 1240.345215,950.765808 1252.643311,941.265503 
	C1291.495972,911.251465 1330.783936,881.801025 1369.868774,852.086853 
	C1387.344238,838.801147 1404.736938,825.406494 1422.167358,812.061279 
	C1436.792969,800.859253 1451.403320,789.637146 1466.049072,778.461243 
	C1478.879150,768.670898 1491.726807,758.903687 1504.607300,749.179810 
	C1516.334351,740.326660 1528.075073,731.490723 1539.884155,722.747681 
	C1552.355957,713.514099 1564.248047,703.241211 1577.612793,695.537781 
	C1592.886108,686.734253 1614.685425,689.646912 1628.989624,701.483337 
	C1638.812134,709.611267 1645.393311,719.778687 1646.953735,732.363098 
	C1648.495239,744.795532 1645.682739,756.504883 1638.723633,767.315735 
	C1623.135254,791.531067 1607.932495,815.994568 1592.579956,840.361694 
	C1574.743164,868.671631 1556.914185,896.986511 1539.018066,925.642151 
	C1527.625977,943.780518 1516.240845,961.540100 1504.980347,979.378357 
	C1475.495483,1026.086914 1446.058960,1072.825928 1416.615601,1119.560547 
	C1398.010132,1149.092529 1379.426514,1178.638306 1360.717773,1208.515137 
	C1352.891235,1220.894165 1345.356201,1233.053345 1337.434570,1244.955078 
	C1315.180908,1278.389282 1284.310791,1299.678711 1245.517334,1309.725098 
	C1228.875732,1314.034546 1211.870483,1315.147095 1194.926147,1313.815186 
	C1167.137085,1311.630737 1141.771851,1301.809570 1119.240723,1285.473877 
	C1098.376465,1270.346680 1078.060669,1254.462646 1057.508789,1238.904785 
	C1056.242676,1237.946411 1055.024536,1236.925049 1053.281982,1235.539551 
	C1029.890259,1217.957886 1007.005371,1200.762939 984.110107,1183.582275 
	C949.494141,1157.606323 914.782349,1131.756714 880.305542,1105.597412 
	C870.119568,1097.868774 858.855469,1093.236816 846.345276,1092.087524 
	C829.858398,1090.573120 815.150391,1095.476562 801.929810,1105.575928 
	C761.057556,1136.798706 720.016235,1167.799927 679.075684,1198.933472 
	C662.542786,1211.506104 646.100891,1224.198242 629.617554,1236.836060 
	C615.179993,1247.666260 600.705933,1258.448120 586.311890,1269.335815 
	C550.223389,1296.633179 514.171143,1323.978638 477.921814,1351.595703 
	C472.928375,1353.947510 468.219971,1356.304565 463.286682,1358.011597 
	C450.466278,1362.448242 438.516815,1359.622803 427.151672,1353.031372 
	C426.007111,1352.367554 424.900574,1351.638062 423.440735,1350.822754 
z"/>
<path fill="#0089FF" opacity="1.000000" stroke="none" 
	d="
M630.026855,1237.007324 
	C646.100891,1224.198242 662.542786,1211.506104 679.075684,1198.933472 
	C720.016235,1167.799927 761.057556,1136.798706 801.929810,1105.575928 
	C815.150391,1095.476562 829.858398,1090.573120 846.345276,1092.087524 
	C858.855469,1093.236816 870.119568,1097.868774 880.305542,1105.597412 
	C914.782349,1131.756714 949.494141,1157.606323 984.110107,1183.582275 
	C1007.005371,1200.762939 1029.890259,1217.957886 1052.948730,1235.427246 
	C1050.902466,1236.472046 1048.694458,1237.873657 1046.471069,1237.898315 
	C1029.654053,1238.084229 1012.834106,1238.000000 996.015076,1238.000000 
	C876.949524,1238.000000 757.883911,1238.005615 638.818359,1237.965698 
	C636.024231,1237.964722 633.230164,1237.452393 630.026855,1237.007324 
z"/>
<path fill="#0094FF" opacity="1.000000" stroke="none" 
	d="
M1421.736938,812.020142 
	C1404.736938,825.406494 1387.344238,838.801147 1369.868774,852.086853 
	C1330.783936,881.801025 1291.495972,911.251465 1252.643311,941.265503 
	C1240.345215,950.765808 1227.126953,957.669434 1211.759888,958.739075 
	C1198.322388,959.674377 1185.589844,955.564697 1174.629028,947.552979 
	C1154.613281,932.922729 1134.857788,917.935974 1115.010742,903.075195 
	C1075.904053,873.793335 1036.808716,844.496399 997.712646,815.200439 
	C997.182312,814.803040 996.703186,814.337341 996.023315,813.626099 
	C998.774780,812.565735 1001.701599,811.105469 1004.631348,811.099548 
	C1069.595581,810.969482 1134.560181,811.000000 1199.524658,811.000000 
	C1270.152710,811.000000 1340.780762,810.986816 1411.408813,811.041565 
	C1414.708252,811.044128 1418.007324,811.652710 1421.736938,812.020142 
z"/>
</svg>